<svg xmlns="http://www.w3.org/2000/svg" viewBox="0 0 1000 600">
  <defs>
    <style>
      .title { font-family: 'Times New Roman', serif; font-size: 18px; font-weight: bold; fill: #1a365d; }
      .subtitle { font-family: 'Arial', sans-serif; font-size: 13px; fill: #718096; }
      .label { font-family: 'Arial', sans-serif; font-size: 14px; fill: #2d3748; }
      .tick { font-family: 'Arial', sans-serif; font-size: 12px; }
      .legend { font-family: 'Arial', sans-serif; font-size: 12px; }
    </style>
    <linearGradient id="claudeGrad" x1="0%" y1="0%" x2="0%" y2="100%">
      <stop offset="0%" style="stop-color:#ed8936;stop-opacity:1" />
      <stop offset="100%" style="stop-color:#dd6b20;stop-opacity:1" />
    </linearGradient>
    <linearGradient id="deepseekGrad" x1="0%" y1="0%" x2="0%" y2="100%">
      <stop offset="0%" style="stop-color:#48bb78;stop-opacity:1" />
      <stop offset="100%" style="stop-color:#38a169;stop-opacity:1" />
    </linearGradient>
    <linearGradient id="gptGrad" x1="0%" y1="0%" x2="0%" y2="100%">
      <stop offset="0%" style="stop-color:#4299e1;stop-opacity:1" />
      <stop offset="100%" style="stop-color:#3182ce;stop-opacity:1" />
    </linearGradient>
  </defs>

  <!-- Background -->
  <rect width="1000" height="600" fill="white"/>

  <!-- Title -->
  <!-- <text x="500" y="35" text-anchor="middle" class="title">Model Comparison: Retained vs. Forgotten Skills</text>
  <text x="500" y="55" text-anchor="middle" class="subtitle">Accuracy comparison across models for perfect and imperfect student configurations</text> -->

  <!-- Chart Area -->
  <g transform="translate(80, 80)">
    <!-- Y-axis -->
    <line x1="0" y1="0" x2="0" y2="350" stroke="#2d3748" stroke-width="1"/>
    <text x="-20" y="175" transform="rotate(-90, -20, 175)" text-anchor="middle" class="label">Accuracy (%)</text>
    
    <!-- Y-axis ticks and labels -->
    <g class="tick">
      <line x1="-5" y1="0" x2="0" y2="0" stroke="#2d3748"/>
      <text x="-10" y="4" text-anchor="end">100</text>
      
      <line x1="-5" y1="70" x2="0" y2="70" stroke="#2d3748"/>
      <text x="-10" y="74" text-anchor="end">80</text>
      
      <line x1="-5" y1="140" x2="0" y2="140" stroke="#2d3748"/>
      <text x="-10" y="144" text-anchor="end">60</text>
      
      <line x1="-5" y1="210" x2="0" y2="210" stroke="#2d3748"/>
      <text x="-10" y="214" text-anchor="end">40</text>
      
      <line x1="-5" y1="280" x2="0" y2="280" stroke="#2d3748"/>
      <text x="-10" y="284" text-anchor="end">20</text>
      
      <line x1="-5" y1="350" x2="0" y2="350" stroke="#2d3748"/>
      <text x="-10" y="354" text-anchor="end">0</text>
    </g>
    
    <!-- Grid lines -->
    <g stroke="#e2e8f0" stroke-dasharray="4,2">
      <line x1="0" y1="70" x2="850" y2="70"/>
      <line x1="0" y1="140" x2="850" y2="140"/>
      <line x1="0" y1="210" x2="850" y2="210"/>
      <line x1="0" y1="280" x2="850" y2="280"/>
    </g>
    
    <!-- X-axis -->
    <line x1="0" y1="350" x2="850" y2="350" stroke="#2d3748" stroke-width="1"/>

    <!-- Bar Groups -->
    <!-- Group 1: Claude -->
    <g transform="translate(50, 0)">
      <!-- Retained -->
      <rect x="0" y="35" width="50" height="315" fill="url(#claudeGrad)" rx="3"/>
      <text x="25" y="25" text-anchor="middle" class="tick" fill="#dd6b20">88%</text>
      <!-- Forgotten -->
      <rect x="60" y="298" width="50" height="52" fill="url(#claudeGrad)" rx="3" opacity="0.5"/>
      <text x="85" y="288" text-anchor="middle" class="tick" fill="#dd6b20">10%</text>
    </g>

    <!-- Group 2: DeepSeek -->
    <g transform="translate(250, 0)">
      <!-- Retained -->
      <rect x="0" y="42" width="50" height="308" fill="url(#deepseekGrad)" rx="3"/>
      <text x="25" y="32" text-anchor="middle" class="tick" fill="#38a169">88%</text>
      <!-- Forgotten -->
      <rect x="60" y="210" width="50" height="140" fill="url(#deepseekGrad)" rx="3" opacity="0.5"/>
      <text x="85" y="200" text-anchor="middle" class="tick" fill="#38a169">35%</text>
    </g>

    <!-- Group 3: GPT-4o -->
    <g transform="translate(450, 0)">
      <!-- Retained -->
      <rect x="0" y="49" width="50" height="301" fill="url(#gptGrad)" rx="3"/>
      <text x="25" y="39" text-anchor="middle" class="tick" fill="#3182ce">86%</text>
      <!-- Forgotten -->
      <rect x="60" y="245" width="50" height="105" fill="url(#gptGrad)" rx="3" opacity="0.5"/>
      <text x="85" y="235" text-anchor="middle" class="tick" fill="#3182ce">28%</text>
    </g>

    <!-- Group 4: Baseline (Perfect Student) -->
    <g transform="translate(650, 0)">
      <!-- Retained -->
      <rect x="0" y="28" width="50" height="322" fill="#805ad5" rx="3"/>
      <text x="25" y="18" text-anchor="middle" class="tick" fill="#805ad5">92%</text>
      <!-- Baseline -->
      <rect x="60" y="28" width="50" height="322" fill="#805ad5" rx="3" opacity="0.3"/>
      <text x="85" y="18" text-anchor="middle" class="tick" fill="#805ad5">92%</text>
    </g>

    <!-- X-axis labels -->
    <g class="label">
      <text x="80" y="375" text-anchor="middle">Claude</text>
      <text x="280" y="375" text-anchor="middle">DeepSeek</text>
      <text x="480" y="375" text-anchor="middle">GPT-4o</text>
      <text x="700" y="375" text-anchor="middle">Perfect</text>
      <text x="700" y="390" text-anchor="middle">(Baseline)</text>
    </g>

    <!-- X-axis sublabels -->
    <g class="tick" fill="#718096">
      <text x="80" y="395" text-anchor="middle">Retained | Forgotten</text>
      <text x="280" y="395" text-anchor="middle">Retained | Forgotten</text>
      <text x="480" y="395" text-anchor="middle">Retained | Forgotten</text>
      <text x="700" y="395" text-anchor="middle">K=1 | K=1</text>
    </g>
  </g>

  <!-- Legend -->
  <g transform="translate(100, 520)">
    <rect x="0" y="0" width="800" height="60" fill="#f7fafc" stroke="#e2e8f0" rx="6"/>
    
    <g transform="translate(30, 20)">
      <rect x="0" y="0" width="20" height="12" fill="url(#claudeGrad)" rx="2"/>
      <text x="30" y="10" class="legend">Claude (Strongest Controllability)</text>
    </g>
    
    <g transform="translate(280, 20)">
      <rect x="0" y="0" width="20" height="12" fill="url(#deepseekGrad)" rx="2"/>
      <text x="30" y="10" class="legend">DeepSeek (Partial Resistance)</text>
    </g>
    
    <g transform="translate(500, 20)">
      <rect x="0" y="0" width="20" height="12" fill="url(#gptGrad)" rx="2"/>
      <text x="30" y="10" class="legend">GPT-4o (Variable)</text>
    </g>
    
    <g transform="translate(30, 42)">
      <rect x="0" y="0" width="20" height="12" fill="#805ad5" rx="2"/>
      <text x="30" y="10" class="legend">Perfect Student Baseline (K=1)</text>
    </g>
    
    <g transform="translate(500, 42)">
      <text x="0" y="10" class="legend">Solid bars = Retained Skills | Semi-transparent = Forgotten Skills</text>
    </g>
  </g>

  <!-- Key Finding -->
  <g transform="translate(100, 590)">
    <text x="0" y="0" class="tick" fill="#e53e3e">
      <tspan font-weight="bold">Key Finding:</tspan>
      <tspan dx="5">Clear separation between retained and forgotten skills demonstrates controllable selective forgetting.</tspan>
      <tspan x="0" dy="12">Forgetting is localized to specified skills, confirming structured behavioral control rather than general performance decline.</tspan>
    </text>
  </g>
</svg>
