<svg xmlns="http://www.w3.org/2000/svg" viewBox="0 0 900 380">
  <defs>
    <style>
      .title { font-family: 'Times New Roman', serif; font-size: 16px; font-weight: bold; fill: #1a365d; }
      .label { font-family: 'Arial', sans-serif; font-size: 13px; fill: #2d3748; }
      .small { font-family: 'Arial', sans-serif; font-size: 11px; }
    </style>
  </defs>

  <!-- Background -->
  <rect width="900" height="380" fill="white"/>

  <!-- Chart Area -->
  <g transform="translate(80, 30)">
    <!-- Y-axis -->
    <line x1="0" y1="0" x2="0" y2="250" stroke="#2d3748" stroke-width="1"/>
    <text x="-25" y="125" transform="rotate(-90, -25, 125)" text-anchor="middle" class="small">Prediction Score</text>
    
    <!-- Y-axis labels -->
    <text x="-8" y="4" text-anchor="end" class="small">+0.15</text>
    <text x="-8" y="62" text-anchor="end" class="small">+0.10</text>
    <text x="-8" y="125" text-anchor="end" class="small">0.00</text>
    <text x="-8" y="187" text-anchor="end" class="small">-0.10</text>
    <text x="-8" y="254" text-anchor="end" class="small">-0.20</text>
    
    <!-- Zero line -->
    <line x1="0" y1="125" x2="750" y2="125" stroke="#38a169" stroke-width="2" stroke-dasharray="4,2"/>
    
    <!-- Grid lines -->
    <g stroke="#e2e8f0" stroke-dasharray="3,2">
      <line x1="0" y1="62" x2="750" y2="62"/>
      <line x1="0" y1="187" x2="750" y2="187"/>
    </g>
    
    <!-- X-axis -->
    <line x1="0" y1="250" x2="750" y2="250" stroke="#2d3748"/>

    <!-- Grade 4 -->
    <g transform="translate(40, 0)">
      <text x="70" y="270" text-anchor="middle" class="small" font-weight="bold">Grade 4</text>
      <!-- Claude - Blue (consistent with other figures) -->
      <rect x="10" y="42" width="35" height="83" fill="#2b6cb0" rx="2"/>
      <text x="27" y="35" text-anchor="middle" class="small" fill="#2b6cb0" font-weight="bold">+0.12</text>
      <!-- DeepSeek - Green -->
      <rect x="55" y="83" width="35" height="42" fill="#38a169" rx="2"/>
      <text x="72" y="76" text-anchor="middle" class="small" fill="#38a169" font-weight="bold">+0.05</text>
      <!-- GPT-4o - Orange -->
      <rect x="100" y="200" width="35" height="50" fill="#dd6b20" rx="2"/>
      <text x="117" y="193" text-anchor="middle" class="small" fill="#dd6b20" font-weight="bold">-0.08</text>
    </g>
    
    <!-- Grade 5 -->
    <g transform="translate(350, 0)">
      <text x="70" y="270" text-anchor="middle" class="small" font-weight="bold">Grade 5</text>
      <!-- Claude - Blue -->
      <rect x="10" y="25" width="35" height="100" fill="#2b6cb0" rx="2"/>
      <text x="27" y="18" text-anchor="middle" class="small" fill="#2b6cb0" font-weight="bold">+0.15</text>
      <!-- DeepSeek - Green -->
      <rect x="55" y="75" width="35" height="50" fill="#38a169" rx="2"/>
      <text x="72" y="68" text-anchor="middle" class="small" fill="#38a169" font-weight="bold">+0.06</text>
      <!-- GPT-4o - Orange -->
      <rect x="100" y="108" width="35" height="17" fill="#dd6b20" rx="2"/>
      <text x="117" y="101" text-anchor="middle" class="small" fill="#dd6b20" font-weight="bold">+0.02</text>
    </g>
    
    <!-- Model labels under bars -->
    <g transform="translate(40, 285)">
      <text x="27" y="0" text-anchor="middle" class="small">Claude</text>
      <text x="72" y="0" text-anchor="middle" class="small">Deep</text>
      <text x="117" y="0" text-anchor="middle" class="small">GPT-4o</text>
    </g>
    <g transform="translate(350, 285)">
      <text x="27" y="0" text-anchor="middle" class="small">Claude</text>
      <text x="72" y="0" text-anchor="middle" class="small">Deep</text>
      <text x="117" y="0" text-anchor="middle" class="small">GPT-4o</text>
    </g>
  </g>

  <!-- Compact Legend -->
  <g transform="translate(80, 340)">
    <rect x="0" y="0" width="12" height="12" fill="#2b6cb0" rx="2"/>
    <text x="18" y="10" class="small">Claude</text>
    <rect x="80" y="0" width="12" height="12" fill="#38a169" rx="2"/>
    <text x="98" y="10" class="small">DeepSeek</text>
    <rect x="170" y="0" width="12" height="12" fill="#dd6b20" rx="2"/>
    <text x="188" y="10" class="small">GPT-4o</text>
    <text x="280" y="10" class="small" fill="#38a169">Positive = Better than expected</text>
    <text x="480" y="10" class="small" fill="#dd6b20">Negative = Under-performance</text>
  </g>
</svg>
