<svg xmlns="http://www.w3.org/2000/svg" viewBox="0 0 1000 550">
  <defs>
    <style>
      .title { font-family: 'Times New Roman', serif; font-size: 18px; font-weight: bold; fill: #1a365d; }
      .subtitle { font-family: 'Arial', sans-serif; font-size: 13px; fill: #718096; }
      .label { font-family: 'Arial', sans-serif; font-size: 14px; fill: #2d3748; }
      .small { font-family: 'Arial', sans-serif; font-size: 12px; }
      .tick { font-family: 'Arial', sans-serif; font-size: 12px; }
    </style>
  </defs>

  <!-- Background -->
  <rect width="1000" height="550" fill="white"/>

  <!-- Title -->
  <!-- <text x="500" y="35" text-anchor="middle" class="title">Skill Correlation Analysis: Independence Validation</text>
  <text x="500" y="55" text-anchor="middle" class="subtitle">Pearson correlation matrices demonstrate weak inter-skill dependencies, enabling localized forgetting</text> -->

  <!-- Grade 4 Correlation Matrix -->
  <g transform="translate(80, 90)">
    <rect x="0" y="0" width="380" height="380" fill="white" stroke="#e2e8f0" stroke-width="1"/>
    
    <text x="190" y="-10" text-anchor="middle" class="label bold">Grade 4 Correlation Matrix</text>
    
    <!-- Matrix grid - 5x5 -->
    <g transform="translate(40, 30)">
      <!-- Skill labels -->
      <g class="small" fill="#4a5568">
        <text x="25" y="10" text-anchor="middle">S1</text>
        <text x="75" y="10" text-anchor="middle">S2</text>
        <text x="125" y="10" text-anchor="middle">S3</text>
        <text x="175" y="10" text-anchor="middle">S4</text>
        <text x="225" y="10" text-anchor="middle">S5</text>
        
        <text x="-5" y="30" text-anchor="end">S1</text>
        <text x="-5" y="80" text-anchor="end">S2</text>
        <text x="-5" y="130" text-anchor="end">S3</text>
        <text x="-5" y="180" text-anchor="end">S4</text>
        <text x="-5" y="230" text-anchor="end">S5</text>
      </g>
      
      <!-- Row 1 -->
      <rect x="0" y="40" width="50" height="50" fill="#1a365d"/>
      <text x="25" y="70" text-anchor="middle" fill="white" font-size="10" font-weight="bold">1.00</text>
      
      <rect x="50" y="40" width="50" height="50" fill="#bee3f8"/>
      <text x="75" y="70" text-anchor="middle" fill="#2d3748" font-size="10">-0.08</text>
      
      <rect x="100" y="40" width="50" height="50" fill="#c6f6d5"/>
      <text x="125" y="70" text-anchor="middle" fill="#276749" font-size="10">-0.12</text>
      
      <rect x="150" y="40" width="50" height="50" fill="#bee3f8"/>
      <text x="175" y="70" text-anchor="middle" fill="#2d3748" font-size="10">-0.05</text>
      
      <rect x="200" y="40" width="50" height="50" fill="#c6f6d5"/>
      <text x="225" y="70" text-anchor="middle" fill="#276749" font-size="10">-0.09</text>
      
      <!-- Row 2 -->
      <rect x="0" y="90" width="50" height="50" fill="#bee3f8"/>
      <text x="25" y="120" text-anchor="middle" fill="#2d3748" font-size="10">-0.08</text>
      
      <rect x="50" y="90" width="50" height="50" fill="#1a365d"/>
      <text x="75" y="120" text-anchor="middle" fill="white" font-size="10" font-weight="bold">1.00</text>
      
      <rect x="100" y="90" width="50" height="50" fill="#bee3f8"/>
      <text x="125" y="120" text-anchor="middle" fill="#2d3748" font-size="10">-0.11</text>
      
      <rect x="150" y="90" width="50" height="50" fill="#c6f6d5"/>
      <text x="175" y="120" text-anchor="middle" fill="#276749" font-size="10">-0.07</text>
      
      <rect x="200" y="90" width="50" height="50" fill="#bee3f8"/>
      <text x="225" y="120" text-anchor="middle" fill="#2d3748" font-size="10">-0.10</text>
      
      <!-- Row 3 -->
      <rect x="0" y="140" width="50" height="50" fill="#c6f6d5"/>
      <text x="25" y="170" text-anchor="middle" fill="#276749" font-size="10">-0.12</text>
      
      <rect x="50" y="140" width="50" height="50" fill="#bee3f8"/>
      <text x="75" y="170" text-anchor="middle" fill="#2d3748" font-size="10">-0.11</text>
      
      <rect x="100" y="140" width="50" height="50" fill="#1a365d"/>
      <text x="125" y="170" text-anchor="middle" fill="white" font-size="10" font-weight="bold">1.00</text>
      
      <rect x="150" y="140" width="50" height="50" fill="#bee3f8"/>
      <text x="175" y="170" text-anchor="middle" fill="#2d3748" font-size="10">-0.06</text>
      
      <rect x="200" y="140" width="50" height="50" fill="#c6f6d5"/>
      <text x="225" y="170" text-anchor="middle" fill="#276749" font-size="10">-0.08</text>
      
      <!-- Row 4 -->
      <rect x="0" y="190" width="50" height="50" fill="#bee3f8"/>
      <text x="25" y="220" text-anchor="middle" fill="#2d3748" font-size="10">-0.05</text>
      
      <rect x="50" y="190" width="50" height="50" fill="#c6f6d5"/>
      <text x="75" y="220" text-anchor="middle" fill="#276749" font-size="10">-0.07</text>
      
      <rect x="100" y="190" width="50" height="50" fill="#bee3f8"/>
      <text x="125" y="220" text-anchor="middle" fill="#2d3748" font-size="10">-0.06</text>
      
      <rect x="150" y="190" width="50" height="50" fill="#1a365d"/>
      <text x="175" y="220" text-anchor="middle" fill="white" font-size="10" font-weight="bold">1.00</text>
      
      <rect x="200" y="190" width="50" height="50" fill="#bee3f8"/>
      <text x="225" y="220" text-anchor="middle" fill="#2d3748" font-size="10">-0.04</text>
      
      <!-- Row 5 -->
      <rect x="0" y="240" width="50" height="50" fill="#c6f6d5"/>
      <text x="25" y="270" text-anchor="middle" fill="#276749" font-size="10">-0.09</text>
      
      <rect x="50" y="240" width="50" height="50" fill="#bee3f8"/>
      <text x="75" y="270" text-anchor="middle" fill="#2d3748" font-size="10">-0.10</text>
      
      <rect x="100" y="240" width="50" height="50" fill="#c6f6d5"/>
      <text x="125" y="270" text-anchor="middle" fill="#276749" font-size="10">-0.08</text>
      
      <rect x="150" y="240" width="50" height="50" fill="#bee3f8"/>
      <text x="175" y="270" text-anchor="middle" fill="#2d3748" font-size="10">-0.04</text>
      
      <rect x="200" y="240" width="50" height="50" fill="#1a365d"/>
      <text x="225" y="270" text-anchor="middle" fill="white" font-size="10" font-weight="bold">1.00</text>
    </g>
    
    <!-- Summary stats -->
    <g transform="translate(40, 310)">
      <text x="0" y="0" class="small" fill="#38a169">Mean |ρ|: ~0.08</text>
      <text x="0" y="15" class="small" fill="#38a169">Interpretation: Strong independence</text>
    </g>
  </g>

  <!-- Grade 5 Correlation Matrix -->
  <g transform="translate(520, 90)">
    <rect x="0" y="0" width="380" height="380" fill="white" stroke="#e2e8f0" stroke-width="1"/>
    
    <text x="190" y="-10" text-anchor="middle" class="label bold">Grade 5 Correlation Matrix</text>
    
    <!-- Matrix grid - 5x5 with slightly stronger correlations -->
    <g transform="translate(40, 30)">
      <!-- Skill labels -->
      <g class="small" fill="#4a5568">
        <text x="25" y="10" text-anchor="middle">S1</text>
        <text x="75" y="10" text-anchor="middle">S2</text>
        <text x="125" y="10" text-anchor="middle">S3</text>
        <text x="175" y="10" text-anchor="middle">S4</text>
        <text x="225" y="10" text-anchor="middle">S5</text>
        
        <text x="-5" y="30" text-anchor="end">S1</text>
        <text x="-5" y="80" text-anchor="end">S2</text>
        <text x="-5" y="130" text-anchor="end">S3</text>
        <text x="-5" y="180" text-anchor="end">S4</text>
        <text x="-5" y="230" text-anchor="end">S5</text>
      </g>
      
      <!-- Row 1 -->
      <rect x="0" y="40" width="50" height="50" fill="#1a365d"/>
      <text x="25" y="70" text-anchor="middle" fill="white" font-size="10" font-weight="bold">1.00</text>
      
      <rect x="50" y="40" width="50" height="50" fill="#bee3f8"/>
      <text x="75" y="70" text-anchor="middle" fill="#2d3748" font-size="10">-0.15</text>
      
      <rect x="100" y="40" width="50" height="50" fill="#bee3f8"/>
      <text x="125" y="70" text-anchor="middle" fill="#2d3748" font-size="10">-0.18</text>
      
      <rect x="150" y="40" width="50" height="50" fill="#c6f6d5"/>
      <text x="175" y="70" text-anchor="middle" fill="#276749" font-size="10">-0.22</text>
      
      <rect x="200" y="40" width="50" height="50" fill="#bee3f8"/>
      <text x="225" y="70" text-anchor="middle" fill="#2d3748" font-size="10">-0.12</text>
      
      <!-- Row 2 -->
      <rect x="0" y="90" width="50" height="50" fill="#bee3f8"/>
      <text x="25" y="120" text-anchor="middle" fill="#2d3748" font-size="10">-0.15</text>
      
      <rect x="50" y="90" width="50" height="50" fill="#1a365d"/>
      <text x="75" y="120" text-anchor="middle" fill="white" font-size="10" font-weight="bold">1.00</text>
      
      <rect x="100" y="90" width="50" height="50" fill="#fed7d7"/>
      <text x="125" y="120" text-anchor="middle" fill="#c53030" font-size="10">-0.24</text>
      
      <rect x="150" y="90" width="50" height="50" fill="#bee3f8"/>
      <text x="175" y="120" text-anchor="middle" fill="#2d3748" font-size="10">-0.10</text>
      
      <rect x="200" y="90" width="50" height="50" fill="#bee3f8"/>
      <text x="225" y="120" text-anchor="middle" fill="#2d3748" font-size="10">-0.19</text>
      
      <!-- Row 3 -->
      <rect x="0" y="140" width="50" height="50" fill="#bee3f8"/>
      <text x="25" y="170" text-anchor="middle" fill="#2d3748" font-size="10">-0.18</text>
      
      <rect x="50" y="140" width="50" height="50" fill="#fed7d7"/>
      <text x="75" y="170" text-anchor="middle" fill="#c53030" font-size="10">-0.24</text>
      
      <rect x="100" y="140" width="50" height="50" fill="#1a365d"/>
      <text x="125" y="170" text-anchor="middle" fill="white" font-size="10" font-weight="bold">1.00</text>
      
      <rect x="150" y="140" width="50" height="50" fill="#bee3f8"/>
      <text x="175" y="170" text-anchor="middle" fill="#2d3748" font-size="10">-0.14</text>
      
      <rect x="200" y="140" width="50" height="50" fill="#bee3f8"/>
      <text x="225" y="170" text-anchor="middle" fill="#2d3748" font-size="10">-0.16</text>
      
      <!-- Row 4 -->
      <rect x="0" y="190" width="50" height="50" fill="#c6f6d5"/>
      <text x="25" y="220" text-anchor="middle" fill="#276749" font-size="10">-0.22</text>
      
      <rect x="50" y="190" width="50" height="50" fill="#bee3f8"/>
      <text x="75" y="220" text-anchor="middle" fill="#2d3748" font-size="10">-0.10</text>
      
      <rect x="100" y="190" width="50" height="50" fill="#bee3f8"/>
      <text x="125" y="220" text-anchor="middle" fill="#2d3748" font-size="10">-0.14</text>
      
      <rect x="150" y="190" width="50" height="50" fill="#1a365d"/>
      <text x="175" y="220" text-anchor="middle" fill="white" font-size="10" font-weight="bold">1.00</text>
      
      <rect x="200" y="190" width="50" height="50" fill="#bee3f8"/>
      <text x="225" y="220" text-anchor="middle" fill="#2d3748" font-size="10">-0.11</text>
      
      <!-- Row 5 -->
      <rect x="0" y="240" width="50" height="50" fill="#bee3f8"/>
      <text x="25" y="270" text-anchor="middle" fill="#2d3748" font-size="10">-0.12</text>
      
      <rect x="50" y="240" width="50" height="50" fill="#bee3f8"/>
      <text x="75" y="270" text-anchor="middle" fill="#2d3748" font-size="10">-0.19</text>
      
      <rect x="100" y="240" width="50" height="50" fill="#bee3f8"/>
      <text x="125" y="270" text-anchor="middle" fill="#2d3748" font-size="10">-0.16</text>
      
      <rect x="150" y="240" width="50" height="50" fill="#bee3f8"/>
      <text x="175" y="270" text-anchor="middle" fill="#2d3748" font-size="10">-0.11</text>
      
      <rect x="200" y="240" width="50" height="50" fill="#1a365d"/>
      <text x="225" y="270" text-anchor="middle" fill="white" font-size="10" font-weight="bold">1.00</text>
    </g>
    
    <!-- Summary stats -->
    <g transform="translate(40, 310)">
      <text x="0" y="0" class="small" fill="#d69e2e">Mean |ρ|: ~0.16</text>
      <text x="0" y="15" class="small" fill="#d69e2e">Interpretation: Mild interference</text>
    </g>
  </g>

  <!-- Color legend with gradient -->
  <g transform="translate(300, 490)">
    <rect x="0" y="0" width="400" height="50" fill="#f7fafc" stroke="#e2e8f0" rx="4"/>
    
    <text x="200" y="15" text-anchor="middle" class="tick" font-weight="bold">Correlation Color Scale</text>
    
    <!-- Gradient bar -->
    <defs>
      <linearGradient id="corrGrad" x1="0%" y1="0%" x2="100%" y2="0%">
        <stop offset="0%" style="stop-color:#c53030"/>
        <stop offset="50%" style="stop-color:#f7fafc"/>
        <stop offset="100%" style="stop-color:#2b6cb0"/>
      </linearGradient>
    </defs>
    <rect x="30" y="20" width="340" height="15" fill="url(#corrGrad)" rx="2"/>
    
    <text x="30" y="45" text-anchor="middle" class="tick">-0.25</text>
    <text x="200" y="45" text-anchor="middle" class="tick">0.00</text>
    <text x="370" y="45" text-anchor="middle" class="tick">+1.00</text>
  </g>
</svg>
