<svg xmlns="http://www.w3.org/2000/svg" viewBox="22 16 776 362">
  <defs>
    <style>
      .label { font-family: 'Arial', sans-serif; font-size: 12px; fill: #2d3748; font-weight: bold; }
      .small { font-family: 'Arial', sans-serif; font-size: 10px; fill: #4a5568; }
      .cell { font-family: 'Arial', sans-serif; font-size: 10px; font-weight: bold; }
    </style>
  </defs>

  <rect width="820" height="400" fill="white"/>

  <!-- Grade 4 panel -->
  <g transform="translate(34, 24)">
    <rect x="0" y="0" width="350" height="310" fill="#ffffff" stroke="#e2e8f0" rx="6"/>
    <text x="175" y="22" text-anchor="middle" class="label">Grade 4</text>
    <text x="175" y="34" text-anchor="middle" class="small">Mean |ρ| = 0.08</text>

    <g transform="translate(36, 56)">
      <text x="28" y="-10" text-anchor="middle" class="small">S1</text>
      <text x="82" y="-10" text-anchor="middle" class="small">S2</text>
      <text x="136" y="-10" text-anchor="middle" class="small">S3</text>
      <text x="190" y="-10" text-anchor="middle" class="small">S4</text>
      <text x="244" y="-10" text-anchor="middle" class="small">S5</text>

      <text x="-10" y="32" text-anchor="end" class="small">S1</text>
      <text x="-10" y="86" text-anchor="end" class="small">S2</text>
      <text x="-10" y="140" text-anchor="end" class="small">S3</text>
      <text x="-10" y="194" text-anchor="end" class="small">S4</text>
      <text x="-10" y="248" text-anchor="end" class="small">S5</text>

      <!-- Row 1 -->
      <rect x="0" y="0" width="56" height="56" fill="#1a365d" stroke="#ffffff"/>
      <text x="28" y="33" text-anchor="middle" fill="white" class="cell">1.00</text>
      <rect x="56" y="0" width="56" height="56" fill="#dbeafe" stroke="#ffffff"/>
      <text x="84" y="33" text-anchor="middle" fill="#2d3748" class="cell">-0.08</text>
      <rect x="112" y="0" width="56" height="56" fill="#c7f0d8" stroke="#ffffff"/>
      <text x="140" y="33" text-anchor="middle" fill="#276749" class="cell">-0.12</text>
      <rect x="168" y="0" width="56" height="56" fill="#e8f2fd" stroke="#ffffff"/>
      <text x="196" y="33" text-anchor="middle" fill="#2d3748" class="cell">-0.05</text>
      <rect x="224" y="0" width="56" height="56" fill="#d4f4df" stroke="#ffffff"/>
      <text x="252" y="33" text-anchor="middle" fill="#276749" class="cell">-0.09</text>

      <!-- Row 2 -->
      <rect x="0" y="56" width="56" height="56" fill="#dbeafe" stroke="#ffffff"/>
      <text x="28" y="89" text-anchor="middle" fill="#2d3748" class="cell">-0.08</text>
      <rect x="56" y="56" width="56" height="56" fill="#1a365d" stroke="#ffffff"/>
      <text x="84" y="89" text-anchor="middle" fill="white" class="cell">1.00</text>
      <rect x="112" y="56" width="56" height="56" fill="#d4eafb" stroke="#ffffff"/>
      <text x="140" y="89" text-anchor="middle" fill="#2d3748" class="cell">-0.11</text>
      <rect x="168" y="56" width="56" height="56" fill="#ddf6e7" stroke="#ffffff"/>
      <text x="196" y="89" text-anchor="middle" fill="#276749" class="cell">-0.07</text>
      <rect x="224" y="56" width="56" height="56" fill="#d7ecfc" stroke="#ffffff"/>
      <text x="252" y="89" text-anchor="middle" fill="#2d3748" class="cell">-0.10</text>

      <!-- Row 3 -->
      <rect x="0" y="112" width="56" height="56" fill="#c7f0d8" stroke="#ffffff"/>
      <text x="28" y="145" text-anchor="middle" fill="#276749" class="cell">-0.12</text>
      <rect x="56" y="112" width="56" height="56" fill="#d4eafb" stroke="#ffffff"/>
      <text x="84" y="145" text-anchor="middle" fill="#2d3748" class="cell">-0.11</text>
      <rect x="112" y="112" width="56" height="56" fill="#1a365d" stroke="#ffffff"/>
      <text x="140" y="145" text-anchor="middle" fill="white" class="cell">1.00</text>
      <rect x="168" y="112" width="56" height="56" fill="#e3f0fc" stroke="#ffffff"/>
      <text x="196" y="145" text-anchor="middle" fill="#2d3748" class="cell">-0.06</text>
      <rect x="224" y="112" width="56" height="56" fill="#dbeefb" stroke="#ffffff"/>
      <text x="252" y="145" text-anchor="middle" fill="#276749" class="cell">-0.08</text>

      <!-- Row 4 -->
      <rect x="0" y="168" width="56" height="56" fill="#e8f2fd" stroke="#ffffff"/>
      <text x="28" y="201" text-anchor="middle" fill="#2d3748" class="cell">-0.05</text>
      <rect x="56" y="168" width="56" height="56" fill="#ddf6e7" stroke="#ffffff"/>
      <text x="84" y="201" text-anchor="middle" fill="#276749" class="cell">-0.07</text>
      <rect x="112" y="168" width="56" height="56" fill="#e3f0fc" stroke="#ffffff"/>
      <text x="140" y="201" text-anchor="middle" fill="#2d3748" class="cell">-0.06</text>
      <rect x="168" y="168" width="56" height="56" fill="#1a365d" stroke="#ffffff"/>
      <text x="196" y="201" text-anchor="middle" fill="white" class="cell">1.00</text>
      <rect x="224" y="168" width="56" height="56" fill="#edf4fd" stroke="#ffffff"/>
      <text x="252" y="201" text-anchor="middle" fill="#2d3748" class="cell">-0.04</text>

      <!-- Row 5 -->
      <rect x="0" y="224" width="56" height="56" fill="#d4f4df" stroke="#ffffff"/>
      <text x="28" y="257" text-anchor="middle" fill="#276749" class="cell">-0.09</text>
      <rect x="56" y="224" width="56" height="56" fill="#d7ecfc" stroke="#ffffff"/>
      <text x="84" y="257" text-anchor="middle" fill="#2d3748" class="cell">-0.10</text>
      <rect x="112" y="224" width="56" height="56" fill="#dbeefb" stroke="#ffffff"/>
      <text x="140" y="257" text-anchor="middle" fill="#276749" class="cell">-0.08</text>
      <rect x="168" y="224" width="56" height="56" fill="#edf4fd" stroke="#ffffff"/>
      <text x="196" y="257" text-anchor="middle" fill="#2d3748" class="cell">-0.04</text>
      <rect x="224" y="224" width="56" height="56" fill="#1a365d" stroke="#ffffff"/>
      <text x="252" y="257" text-anchor="middle" fill="white" class="cell">1.00</text>
    </g>
  </g>

  <!-- Grade 5 panel -->
  <g transform="translate(436, 24)">
    <rect x="0" y="0" width="350" height="310" fill="#ffffff" stroke="#e2e8f0" rx="6"/>
    <text x="175" y="22" text-anchor="middle" class="label">Grade 5</text>
    <text x="175" y="34" text-anchor="middle" class="small">Mean |ρ| = 0.16</text>

    <g transform="translate(36, 56)">
      <text x="28" y="-10" text-anchor="middle" class="small">S1</text>
      <text x="82" y="-10" text-anchor="middle" class="small">S2</text>
      <text x="136" y="-10" text-anchor="middle" class="small">S3</text>
      <text x="190" y="-10" text-anchor="middle" class="small">S4</text>
      <text x="244" y="-10" text-anchor="middle" class="small">S5</text>

      <text x="-10" y="32" text-anchor="end" class="small">S1</text>
      <text x="-10" y="86" text-anchor="end" class="small">S2</text>
      <text x="-10" y="140" text-anchor="end" class="small">S3</text>
      <text x="-10" y="194" text-anchor="end" class="small">S4</text>
      <text x="-10" y="248" text-anchor="end" class="small">S5</text>

      <!-- Row 1 -->
      <rect x="0" y="0" width="56" height="56" fill="#1a365d" stroke="#ffffff"/>
      <text x="28" y="33" text-anchor="middle" fill="white" class="cell">1.00</text>
      <rect x="56" y="0" width="56" height="56" fill="#cae5fb" stroke="#ffffff"/>
      <text x="84" y="33" text-anchor="middle" fill="#2d3748" class="cell">-0.15</text>
      <rect x="112" y="0" width="56" height="56" fill="#c4e1fa" stroke="#ffffff"/>
      <text x="140" y="33" text-anchor="middle" fill="#2d3748" class="cell">-0.18</text>
      <rect x="168" y="0" width="56" height="56" fill="#c9f0d7" stroke="#ffffff"/>
      <text x="196" y="33" text-anchor="middle" fill="#276749" class="cell">-0.22</text>
      <rect x="224" y="0" width="56" height="56" fill="#d2e9fc" stroke="#ffffff"/>
      <text x="252" y="33" text-anchor="middle" fill="#2d3748" class="cell">-0.12</text>

      <!-- Row 2 -->
      <rect x="0" y="56" width="56" height="56" fill="#cae5fb" stroke="#ffffff"/>
      <text x="28" y="89" text-anchor="middle" fill="#2d3748" class="cell">-0.15</text>
      <rect x="56" y="56" width="56" height="56" fill="#1a365d" stroke="#ffffff"/>
      <text x="84" y="89" text-anchor="middle" fill="white" class="cell">1.00</text>
      <rect x="112" y="56" width="56" height="56" fill="#fed7d7" stroke="#ffffff"/>
      <text x="140" y="89" text-anchor="middle" fill="#c53030" class="cell">-0.24</text>
      <rect x="168" y="56" width="56" height="56" fill="#d8ecfc" stroke="#ffffff"/>
      <text x="196" y="89" text-anchor="middle" fill="#2d3748" class="cell">-0.10</text>
      <rect x="224" y="56" width="56" height="56" fill="#c3e0fa" stroke="#ffffff"/>
      <text x="252" y="89" text-anchor="middle" fill="#2d3748" class="cell">-0.19</text>

      <!-- Row 3 -->
      <rect x="0" y="112" width="56" height="56" fill="#c4e1fa" stroke="#ffffff"/>
      <text x="28" y="145" text-anchor="middle" fill="#2d3748" class="cell">-0.18</text>
      <rect x="56" y="112" width="56" height="56" fill="#fed7d7" stroke="#ffffff"/>
      <text x="84" y="145" text-anchor="middle" fill="#c53030" class="cell">-0.24</text>
      <rect x="112" y="112" width="56" height="56" fill="#1a365d" stroke="#ffffff"/>
      <text x="140" y="145" text-anchor="middle" fill="white" class="cell">1.00</text>
      <rect x="168" y="112" width="56" height="56" fill="#cfe7fb" stroke="#ffffff"/>
      <text x="196" y="145" text-anchor="middle" fill="#2d3748" class="cell">-0.14</text>
      <rect x="224" y="112" width="56" height="56" fill="#c7e3fa" stroke="#ffffff"/>
      <text x="252" y="145" text-anchor="middle" fill="#2d3748" class="cell">-0.16</text>

      <!-- Row 4 -->
      <rect x="0" y="168" width="56" height="56" fill="#c9f0d7" stroke="#ffffff"/>
      <text x="28" y="201" text-anchor="middle" fill="#276749" class="cell">-0.22</text>
      <rect x="56" y="168" width="56" height="56" fill="#d8ecfc" stroke="#ffffff"/>
      <text x="84" y="201" text-anchor="middle" fill="#2d3748" class="cell">-0.10</text>
      <rect x="112" y="168" width="56" height="56" fill="#cfe7fb" stroke="#ffffff"/>
      <text x="140" y="201" text-anchor="middle" fill="#2d3748" class="cell">-0.14</text>
      <rect x="168" y="168" width="56" height="56" fill="#1a365d" stroke="#ffffff"/>
      <text x="196" y="201" text-anchor="middle" fill="white" class="cell">1.00</text>
      <rect x="224" y="168" width="56" height="56" fill="#d5ebfc" stroke="#ffffff"/>
      <text x="252" y="201" text-anchor="middle" fill="#2d3748" class="cell">-0.11</text>

      <!-- Row 5 -->
      <rect x="0" y="224" width="56" height="56" fill="#d2e9fc" stroke="#ffffff"/>
      <text x="28" y="257" text-anchor="middle" fill="#2d3748" class="cell">-0.12</text>
      <rect x="56" y="224" width="56" height="56" fill="#c3e0fa" stroke="#ffffff"/>
      <text x="84" y="257" text-anchor="middle" fill="#2d3748" class="cell">-0.19</text>
      <rect x="112" y="224" width="56" height="56" fill="#c7e3fa" stroke="#ffffff"/>
      <text x="140" y="257" text-anchor="middle" fill="#2d3748" class="cell">-0.16</text>
      <rect x="168" y="224" width="56" height="56" fill="#d5ebfc" stroke="#ffffff"/>
      <text x="196" y="257" text-anchor="middle" fill="#2d3748" class="cell">-0.11</text>
      <rect x="224" y="224" width="56" height="56" fill="#1a365d" stroke="#ffffff"/>
      <text x="252" y="257" text-anchor="middle" fill="white" class="cell">1.00</text>
    </g>
  </g>

  <g transform="translate(272, 360)">
    <rect x="0" y="0" width="15" height="15" fill="#fed7d7" rx="2"/>
    <text x="22" y="12" class="small">more negative</text>
    <rect x="128" y="0" width="15" height="15" fill="#dbeafe" stroke="#e2e8f0" rx="2"/>
    <text x="150" y="12" class="small">near zero</text>
    <rect x="232" y="0" width="15" height="15" fill="#1a365d" rx="2"/>
    <text x="254" y="12" class="small">diagonal = 1.00</text>
  </g>
</svg>
